<mxfile host="app.diagrams.net" modified="2024-03-15T01:28:46.885Z" agent="Mozilla/5.0 (Windows NT 10.0; Win64; x64) AppleWebKit/537.36 (KHTML, like Gecko) Chrome/122.0.0.0 Safari/537.36 Edg/122.0.0.0" version="24.0.6" etag="8uHNUkAv7WjV4WMutoYn" type="github">
  <diagram name="PÃ¡gina-1" id="95vhXQQycbxGIuxe14pf">
    <mxGraphModel>
      <root>
        <mxCell id="0" />
        <mxCell id="1" parent="0" />
      </root>
    </mxGraphModel>
  </diagram>
</mxfile>
